General
Complete name                    : The.Karate.Kid.2010.NORDiC.x264.AC3(5.1).mkv
Format                           : Matroska
File size                        : 907 MiB
Duration                         : 2h 7mn
Overall bit rate                 : 996 Kbps
Writing application              : HandBrake 0.9.4

Video
ID                               : 1
Format                           : AVC
Duration                         : 2h 7mn
Bit rate                         : 537 Kbps
Width                            : 720 pixels
Height                           : 456 pixels
Display aspect ratio             : 2.25:1
Stream size                      : 481 MiB (53%)
Writing library                  : x264 core 79

Audio

Format                           : AC-3
Duration                         : 2h 7mn
Bit rate                         : 448 Kbps
Channel(s)                       : 6 channels
Channel positions                : Front: L C R, Side: L R, LFE
Sampling rate                    : 48.0 KHz
Stream size                      : 408 MiB (45%)
Language                         : English

Text #1
Language                         : Swedish

Text #2
Language                         : Danish

Text #3
Language                         : Norwegian

Text #4
Language                         : Finnish

Menu
00:00:00.000                     : Chapter 1
00:08:00.600                     : Chapter 2


